<?xml version="1.0" encoding="utf-8"?>
<!-- Generator: Adobe Illustrator 24.1.1, SVG Export Plug-In . SVG Version: 6.00 Build 0)  -->
<svg version="1.1" id="Capa_1" xmlns="http://www.w3.org/2000/svg" xmlns:xlink="http://www.w3.org/1999/xlink" x="0px" y="0px"
	 viewBox="0 0 88 55" style="enable-background:new 0 0 88 55;" xml:space="preserve">
<style type="text/css">
	.st0{fill:#DFE4EB;}
</style>
<g>
	<path class="st0" d="M47.83,3.14v1.37c-0.91,0.23-1.88,0.84-2.91,1.85c-1.03,1-1.97,2.62-2.84,4.86L26.55,51.86
		c-0.18,0-0.37,0-0.55,0c-0.18,0-0.39,0-0.62,0c-0.18,0-0.37,0-0.55,0c-0.18,0-0.37,0-0.55,0L7.32,8.89
		C6.64,7.2,5.88,6.06,5.06,5.46c-0.82-0.59-1.6-0.91-2.33-0.96V3.14C3.78,3.18,5.07,3.23,6.6,3.27c1.53,0.05,3.02,0.07,4.48,0.07
		c1.87,0,3.64-0.02,5.3-0.07c1.66-0.04,3-0.09,4-0.14v1.37c-1.51,0.05-2.67,0.23-3.49,0.55c-0.82,0.32-1.27,0.88-1.33,1.68
		c-0.07,0.8,0.19,1.97,0.79,3.52l12.66,33.05l-1.23,1.37l11.09-29.15c1.05-2.78,1.57-4.96,1.57-6.54s-0.5-2.7-1.51-3.39
		c-1-0.68-2.46-1.05-4.38-1.09V3.14c1.41,0.05,2.81,0.09,4.17,0.14c1.37,0.05,2.67,0.07,3.9,0.07c1.14,0,2.12-0.02,2.94-0.07
		C46.4,3.23,47.15,3.18,47.83,3.14z"/>
	<path class="st0" d="M71.72,3.21c4.65,0,8.08,0.81,10.27,2.43c2.19,1.62,3.28,3.75,3.28,6.4c0,2.37-0.71,4.51-2.12,6.4
		c-1.41,1.89-3.3,3.48-5.65,4.76c-2.35,1.28-4.92,2.24-7.7,2.87c4.52,0.5,7.74,1.77,9.68,3.8c1.94,2.03,2.91,4.41,2.91,7.15
		c0,2.46-0.58,4.6-1.75,6.4c-1.16,1.8-2.74,3.31-4.72,4.52c-1.98,1.21-4.23,2.12-6.74,2.74c-2.51,0.62-5.13,0.92-7.87,0.92
		c-1.64,0-3.39-0.03-5.24-0.1c-1.85-0.07-4.05-0.1-6.6-0.1c-1.09,0-2.21,0.01-3.35,0.03c-1.14,0.02-2.21,0.05-3.22,0.07
		c-1,0.02-1.85,0.06-2.53,0.1l0.27-1.37c1.55-0.09,2.76-0.27,3.63-0.55c0.87-0.27,1.55-0.82,2.05-1.64c0.5-0.82,0.96-2.05,1.37-3.7
		l9.03-33.94c0.32-1.37,0.5-2.47,0.55-3.32c0.04-0.84-0.26-1.48-0.92-1.92c-0.66-0.43-1.88-0.65-3.66-0.65l0.34-1.37
		c0.68,0.05,1.52,0.08,2.5,0.1c0.98,0.02,2.03,0.05,3.15,0.07c1.12,0.02,2.2,0.03,3.25,0.03c1.78,0,3.44-0.02,5-0.07
		C68.48,3.23,70.07,3.21,71.72,3.21z M58.78,27.02l0.27-1.16h5.2c2.69,0,5.01-0.65,6.95-1.95c1.94-1.3,3.42-3.01,4.45-5.13
		c1.03-2.12,1.54-4.37,1.54-6.74c0-2.46-0.51-4.33-1.54-5.61c-1.03-1.28-2.75-1.92-5.17-1.92c-1.78,0-3.05,0.31-3.8,0.92
		s-1.38,1.93-1.88,3.93l-9.24,34.97c-0.32,1.23-0.5,2.28-0.55,3.15c-0.05,0.87,0.21,1.51,0.75,1.92c0.55,0.41,1.55,0.62,3.01,0.62
		c3.6,0,6.52-0.58,8.76-1.74c2.24-1.16,3.88-2.81,4.93-4.93c1.05-2.12,1.57-4.6,1.57-7.43c0-1.82-0.31-3.4-0.92-4.72
		c-0.62-1.32-1.6-2.35-2.94-3.08c-1.35-0.73-3.11-1.09-5.3-1.09H58.78z"/>
</g>
</svg>
