<?xml version="1.0" encoding="utf-8"?>
<!-- Generator: Adobe Illustrator 24.1.1, SVG Export Plug-In . SVG Version: 6.00 Build 0)  -->
<svg version="1.1" id="Capa_1" xmlns="http://www.w3.org/2000/svg" xmlns:xlink="http://www.w3.org/1999/xlink" x="0px" y="0px"
	 viewBox="0 0 575 374" style="enable-background:new 0 0 575 374;" xml:space="preserve">
<style type="text/css">
	.st0{fill:#7B1E3B;}
</style>
<g>
	<g>
		<path class="st0" d="M302.89,3.92v5.5c-3.67,0.92-7.56,3.39-11.68,7.42c-4.12,4.03-7.93,10.54-11.4,19.51l-62.38,163.23
			c-0.73,0-1.47,0-2.2,0c-0.73,0-1.56,0-2.47,0c-0.73,0-1.47,0-2.2,0c-0.73,0-1.47,0-2.2,0L140.21,27
			c-2.75-6.78-5.77-11.36-9.07-13.74c-3.3-2.38-6.41-3.66-9.34-3.85v-5.5c4.21,0.18,9.39,0.37,15.53,0.55
			c6.14,0.18,12.13,0.27,18,0.27c7.51,0,14.61-0.09,21.3-0.27c6.69-0.18,12.04-0.37,16.08-0.55v5.5c-6.05,0.18-10.72,0.92-14.01,2.2
			c-3.3,1.28-5.08,3.53-5.36,6.73c-0.27,3.21,0.78,7.93,3.16,14.15l50.84,132.73l-4.95,5.5l44.52-117.06
			c4.21-11.17,6.32-19.92,6.32-26.24s-2.02-10.85-6.05-13.6c-4.03-2.75-9.89-4.21-17.59-4.4v-5.5c5.68,0.18,11.27,0.37,16.76,0.55
			c5.5,0.18,10.72,0.27,15.66,0.27c4.58,0,8.52-0.09,11.82-0.27C297.12,4.29,300.14,4.11,302.89,3.92z"/>
		<path class="st0" d="M398.79,4.2c18.69,0,32.43,3.25,41.22,9.76c8.79,6.5,13.19,15.07,13.19,25.69c0,9.53-2.84,18.09-8.52,25.69
			c-5.68,7.6-13.24,13.97-22.67,19.1c-9.44,5.13-19.74,8.98-30.91,11.54c18.14,2.02,31.09,7.1,38.88,15.25
			c7.78,8.15,11.68,17.72,11.68,28.72c0,9.89-2.34,18.46-7.01,25.69c-4.67,7.24-10.99,13.28-18.96,18.14
			c-7.97,4.86-16.99,8.52-27.07,10.99c-10.08,2.47-20.61,3.71-31.6,3.71c-6.6,0-13.6-0.14-21.02-0.41s-16.26-0.41-26.52-0.41
			c-4.4,0-8.89,0.05-13.46,0.14c-4.58,0.09-8.89,0.18-12.92,0.27c-4.03,0.09-7.42,0.23-10.17,0.41l1.1-5.5
			c6.23-0.37,11.08-1.1,14.56-2.2c3.48-1.1,6.23-3.3,8.24-6.59c2.01-3.3,3.85-8.24,5.5-14.84l36.27-136.3
			c1.28-5.5,2.01-9.94,2.2-13.33c0.18-3.39-1.06-5.95-3.71-7.69c-2.66-1.74-7.56-2.61-14.7-2.61l1.37-5.5
			c2.75,0.18,6.09,0.32,10.03,0.41c3.94,0.09,8.15,0.18,12.64,0.27c4.49,0.09,8.84,0.14,13.05,0.14c7.14,0,13.83-0.09,20.06-0.27
			C385.78,4.29,392.2,4.2,398.79,4.2z M346.85,99.82l1.1-4.67h20.88c10.81,0,20.1-2.61,27.89-7.83
			c7.78-5.22,13.74-12.09,17.86-20.61s6.18-17.54,6.18-27.07c0-9.89-2.06-17.4-6.18-22.53c-4.12-5.13-11.04-7.69-20.75-7.69
			c-7.14,0-12.23,1.24-15.25,3.71s-5.54,7.74-7.56,15.8l-37.1,140.42c-1.29,4.95-2.02,9.16-2.2,12.64
			c-0.18,3.48,0.82,6.04,3.02,7.69c2.2,1.65,6.23,2.47,12.09,2.47c14.47,0,26.2-2.34,35.17-7.01c8.97-4.67,15.57-11.27,19.79-19.79
			c4.21-8.52,6.32-18.45,6.32-29.82c0-7.33-1.24-13.65-3.71-18.96c-2.47-5.31-6.42-9.43-11.82-12.37c-5.41-2.93-12.5-4.4-21.3-4.4
			H346.85z"/>
	</g>
	<g>
		<path class="st0" d="M49.03,372.92H12.4l-11.04,0.39C0.46,373.32,0,372.88,0,372c0-0.88,0.36-1.32,1.07-1.32l2.83-0.2
			c1.3-0.13,2.38-0.54,3.22-1.22c0.84-0.68,1.27-1.61,1.27-2.78V311c0-2.34-1.5-3.65-4.49-3.91l-2.83-0.29
			c-0.72,0-1.07-0.44-1.07-1.32c0-0.88,0.46-1.32,1.37-1.32l11.04,0.39h34.67c1.24,0,2.25,0.38,3.03,1.12
			c0.78,0.75,1.24,1.68,1.37,2.78l1.37,8.99c0.13,1.17-0.34,1.76-1.42,1.76c-1.07,0-1.77-0.52-2.1-1.56
			c-0.98-3.13-2.44-5.34-4.4-6.64c-1.95-1.3-4.66-1.95-8.11-1.95H21.49c-1.43,0-2.59,0.41-3.47,1.22c-0.88,0.81-1.32,1.94-1.32,3.37
			v20.51c0,0.85,0.42,1.27,1.27,1.27h18.17c0.91,0,1.63-0.23,2.15-0.68c0.52-0.46,0.86-0.88,1.03-1.27
			c0.16-0.39,0.41-1.11,0.73-2.15l0.39-1.27c0.19-0.78,0.68-1.17,1.46-1.17c0.78,0,1.17,0.46,1.17,1.37l-0.39,8.3l0.39,7.91
			c0,0.85-0.43,1.34-1.27,1.46c-0.78,0-1.24-0.39-1.37-1.17l-0.29-1.76c-0.59-3.39-1.92-5.08-4-5.08H17.87
			c-0.78,0-1.17,0.46-1.17,1.37v22.66c0,1.37,0.44,2.46,1.32,3.27c0.88,0.81,2.03,1.22,3.47,1.22H37.6c3.39,0,6.3-0.83,8.74-2.49
			c2.44-1.66,4.15-4.09,5.13-7.28c0.32-1.04,0.86-1.56,1.61-1.56c0.75,0,1.27,0.18,1.56,0.54c0.29,0.36,0.41,0.77,0.34,1.22
			l-1.56,10.16c-0.13,1.11-0.6,2.04-1.42,2.78C51.19,372.55,50.2,372.92,49.03,372.92z"/>
		<path class="st0" d="M97.77,360.33c0,4.1-1.65,7.41-4.93,9.91c-3.29,2.51-7.29,3.76-12.01,3.76c-4.72,0-8.64-0.55-11.77-1.66
			c-3.12-1.1-4.69-2.34-4.69-3.71v-8.5c0-1.17,0.44-1.76,1.32-1.76c0.88,0,1.48,0.59,1.81,1.76c2.02,6.71,6.25,10.06,12.7,10.06
			c2.93,0,5.34-0.73,7.23-2.2c1.89-1.46,2.83-3.3,2.83-5.52s-0.88-4.12-2.64-5.71c-1.76-1.6-3.89-2.98-6.4-4.15
			c-2.51-1.17-5.02-2.41-7.52-3.71c-2.51-1.3-4.64-2.98-6.4-5.03c-1.76-2.05-2.64-4.41-2.64-7.08c0-3.97,1.53-7.26,4.59-9.86
			c3.06-2.61,7.13-3.91,12.21-3.91c3.38,0,6.48,0.57,9.28,1.71c2.8,1.14,4.2,2.36,4.2,3.66v7.52c0,1.17-0.46,1.76-1.37,1.76
			c-0.91,0-1.5-0.59-1.76-1.76c-1.76-6.06-5.44-9.08-11.04-9.08c-2.54,0-4.69,0.63-6.45,1.9c-1.76,1.27-2.64,2.96-2.64,5.08
			c0,2.12,0.89,3.99,2.68,5.62c1.79,1.63,3.97,3.04,6.54,4.25c2.57,1.21,5.13,2.48,7.67,3.81c2.54,1.34,4.7,3.09,6.49,5.27
			C96.87,354.94,97.77,357.46,97.77,360.33z"/>
		<path class="st0" d="M137.32,368.24c0,1.24-1.32,2.51-3.95,3.81c-2.64,1.3-5.29,1.95-7.96,1.95c-4.75,0-8.16-1.12-10.21-3.37
			c-2.05-2.25-3.08-6.01-3.08-11.28v-29.3c0-0.72-0.42-1.08-1.27-1.08h-5.96c-0.33,0-0.62-0.11-0.88-0.34
			c-0.26-0.23-0.36-0.5-0.29-0.83l0.29-2.54c0.13-0.78,0.52-1.17,1.17-1.17h5.86c0.58,0,0.88-0.36,0.88-1.07l0.88-13.58
			c0.07-1.24,0.68-1.85,1.86-1.85c0.91,0,1.53,0.49,1.86,1.46l3.22,13.77c0.19,0.85,0.68,1.27,1.46,1.27h14.55
			c0.91,0,1.27,0.39,1.08,1.17l-0.29,2.54c-0.13,0.78-0.52,1.17-1.17,1.17h-14.85c-0.52,0-0.78,0.36-0.78,1.08v30.28
			c0,6.12,2.38,9.18,7.13,9.18c2.15,0,4.26-0.39,6.35-1.17l3.13-1.17C137,367.16,137.32,367.52,137.32,368.24z"/>
		<path class="st0" d="M189.67,328.19v35.84c0,2.09,0.65,3.76,1.95,5.03c1.3,1.27,2.87,1.9,4.69,1.9c0.98,0,1.47,0.39,1.47,1.17
			c0,1.24-1.27,1.86-3.81,1.86c-3.84,0-7.2-1.6-10.06-4.79c-0.19-0.19-0.39-0.42-0.59-0.68c-0.19-0.26-0.36-0.49-0.49-0.68
			c-0.26-0.32-0.54-0.49-0.83-0.49c-0.29,0-0.73,0.26-1.32,0.78c-4.43,3.91-9.46,5.86-15.09,5.86c-5.63,0-10.14-1.63-13.53-4.88
			c-3.39-3.25-5.08-7.88-5.08-13.87v-24.71c0-1.3-0.28-2.21-0.83-2.73c-0.55-0.52-1.42-0.78-2.59-0.78h-3.32
			c-0.33,0-0.63-0.13-0.93-0.39c-0.29-0.26-0.44-0.59-0.44-0.98c0-0.78,0.46-1.24,1.37-1.37l12.89-1.27c0.2,0,0.36,0,0.49,0
			c1.3,0,1.95,0.52,1.95,1.56c0,0.13-0.16,0.52-0.49,1.17c-0.33,0.65-0.49,1.46-0.49,2.44v28.62c0,4.04,1.25,7.21,3.76,9.52
			c2.51,2.31,5.73,3.47,9.67,3.47c3.94,0,7.26-1.46,9.96-4.39c2.7-2.93,4.05-6.25,4.05-9.96v-24.91c0-1.3-0.28-2.21-0.83-2.73
			c-0.55-0.52-1.41-0.78-2.59-0.78h-4.3c-0.33,0-0.63-0.13-0.93-0.39c-0.29-0.26-0.44-0.59-0.44-0.98c0-0.78,0.46-1.24,1.37-1.37
			l13.67-1.27c0.13,0,0.29,0,0.49,0c1.3,0,1.95,0.52,1.95,1.56c0,0.13-0.13,0.52-0.39,1.17C189.8,326.4,189.67,327.22,189.67,328.19
			z"/>
		<path class="st0" d="M249.35,294.79c0.85,0,1.27,0.68,1.27,2.05v67.39c0,2.02,0.64,3.68,1.91,4.98c1.27,1.3,2.62,1.96,4.05,1.96
			c1.43,0,2.15,0.42,2.15,1.27c0,1.04-1.27,1.56-3.81,1.56c-4.23,0-7.59-1.53-10.06-4.59c-0.39-0.52-0.7-0.78-0.93-0.78
			c-0.23,0-1.01,0.46-2.34,1.37c-1.34,0.91-3.16,1.81-5.47,2.68c-2.31,0.88-4.8,1.32-7.47,1.32c-7.75,0-13.85-2.34-18.31-7.03
			c-4.46-4.69-6.69-10.63-6.69-17.82s2.47-13.35,7.42-18.46c4.95-5.11,10.81-7.67,17.58-7.67c4.95,0,9.28,1.5,12.99,4.49
			c0.26,0.19,0.55,0.29,0.88,0.29c0.32,0,0.49-0.42,0.49-1.27V302.6c0-1.3-0.28-2.2-0.83-2.69c-0.55-0.49-1.45-0.73-2.69-0.73h-3.32
			c-0.33,0-0.62-0.15-0.88-0.44c-0.26-0.29-0.39-0.6-0.39-0.93c0-0.91,0.42-1.4,1.27-1.46l12.89-1.56
			C249.12,294.79,249.22,294.79,249.35,294.79z M243,359.74v-21.59c0-2.93-1.37-5.43-4.1-7.52c-2.73-2.08-6.05-3.12-9.96-3.12
			c-5.27,0-9.38,1.64-12.31,4.93c-2.93,3.29-4.4,7.76-4.4,13.43c0,7.56,1.58,13.46,4.74,17.73c3.16,4.27,7.21,6.4,12.16,6.4
			c3.52,0,6.71-1.04,9.57-3.13C241.57,364.79,243,362.41,243,359.74z"/>
		<path class="st0" d="M283.24,370.68c0.78,0.07,1.17,0.52,1.17,1.37c0,0.85-0.49,1.27-1.46,1.27l-9.28-0.39l-10.55,0.39
			c-0.98,0-1.46-0.42-1.46-1.27c0-0.85,0.39-1.3,1.17-1.37l2.73-0.2c1.3-0.13,2.38-0.54,3.22-1.22c0.84-0.68,1.27-1.61,1.27-2.78
			v-35.75c0-1.3-0.28-2.2-0.83-2.69c-0.55-0.49-1.45-0.73-2.69-0.73h-3.32c-0.85,0-1.27-0.42-1.27-1.27c0-0.84,0.42-1.33,1.27-1.46
			l12.7-1.56c1.17-0.13,1.76,0.62,1.76,2.25v41.22c0,2.34,1.3,3.68,3.91,4L283.24,370.68z M269.71,308.27
			c-0.88-0.85-1.32-1.92-1.32-3.22c0-1.3,0.44-2.38,1.32-3.22c0.88-0.85,1.97-1.27,3.27-1.27c1.3,0,2.41,0.42,3.32,1.27
			c0.91,0.85,1.37,1.92,1.37,3.22c0,1.3-0.46,2.38-1.37,3.22c-0.91,0.85-2.02,1.27-3.32,1.27
			C271.68,309.54,270.59,309.11,269.71,308.27z"/>
		<path class="st0" d="M317.57,323.02c7.45,0,13.41,2.34,17.87,7.03c4.46,4.69,6.69,10.86,6.69,18.51c0,7.65-2.21,13.8-6.64,18.46
			c-4.43,4.66-10.44,6.98-18.02,6.98c-7.58,0-13.61-2.34-18.07-7.03c-4.46-4.69-6.69-10.81-6.69-18.36c0-7.55,2.28-13.71,6.84-18.46
			C304.11,325.39,310.11,323.02,317.57,323.02z M330.41,334.93c-1.11-2.47-2.75-4.44-4.93-5.91c-2.18-1.46-4.83-2.2-7.96-2.2
			c-5.4,0-9.44,1.79-12.11,5.37c-2.67,3.58-4,8.27-4,14.06c0,5.99,1.04,11.3,3.13,15.92c1.11,2.41,2.75,4.35,4.93,5.81
			c2.18,1.46,4.77,2.2,7.77,2.2c5.53,0,9.62-1.79,12.26-5.37s3.96-8.33,3.96-14.26C333.44,344.63,332.43,339.42,330.41,334.93z"/>
		<path class="st0" d="M418.12,305.53c0-0.91,0.48-1.37,1.46-1.37l8.5,0.39l8.89-0.39c0.91,0,1.37,0.44,1.37,1.32
			c0,0.88-0.36,1.32-1.08,1.32l-1.85,0.2c-2.93,0.33-4.82,1.66-5.67,4l-24.12,61.83c-0.26,0.78-0.99,1.17-2.2,1.17
			s-1.97-0.39-2.3-1.17L377.1,311c-0.98-2.47-2.83-3.81-5.57-4l-2.05-0.2c-0.26,0-0.49-0.13-0.68-0.39s-0.29-0.52-0.29-0.78
			c0-0.98,0.46-1.47,1.37-1.47l10.26,0.39l10.84-0.39c0.91,0,1.37,0.39,1.37,1.17c0,0.91-0.39,1.4-1.17,1.46l-2.25,0.2
			c-1.11,0.07-1.9,0.52-2.39,1.37c-0.49,0.85-0.57,1.72-0.24,2.64l18.75,51.18L424.27,311c0.39-0.98,0.34-1.87-0.15-2.69
			c-0.49-0.81-1.35-1.25-2.59-1.32l-2.15-0.2C418.54,306.67,418.12,306.25,418.12,305.53z"/>
		<path class="st0" d="M460.9,370.68c0.78,0.07,1.17,0.52,1.17,1.37c0,0.85-0.49,1.27-1.46,1.27l-9.28-0.39l-10.55,0.39
			c-0.98,0-1.46-0.42-1.46-1.27c0-0.85,0.39-1.3,1.17-1.37l2.73-0.2c1.3-0.13,2.38-0.54,3.22-1.22c0.85-0.68,1.27-1.61,1.27-2.78
			v-35.75c0-1.3-0.28-2.2-0.83-2.69c-0.55-0.49-1.45-0.73-2.68-0.73h-3.32c-0.85,0-1.27-0.42-1.27-1.27c0-0.84,0.42-1.33,1.27-1.46
			l12.7-1.56c1.17-0.13,1.76,0.62,1.76,2.25v41.22c0,2.34,1.3,3.68,3.91,4L460.9,370.68z M447.37,308.27
			c-0.88-0.85-1.32-1.92-1.32-3.22c0-1.3,0.44-2.38,1.32-3.22c0.88-0.85,1.97-1.27,3.27-1.27c1.3,0,2.41,0.42,3.32,1.27
			c0.91,0.85,1.37,1.92,1.37,3.22c0,1.3-0.46,2.38-1.37,3.22c-0.91,0.85-2.02,1.27-3.32,1.27
			C449.34,309.54,448.25,309.11,447.37,308.27z"/>
		<path class="st0" d="M497.62,323.02c6.05,0,11.33,2.36,15.82,7.08c4.49,4.72,6.74,10.73,6.74,18.02s-2.46,13.43-7.37,18.41
			c-4.92,4.98-10.79,7.47-17.63,7.47c-5.01,0-9.34-0.91-12.99-2.73c-1.17-0.59-2.05-0.88-2.64-0.88c-1.24,0-2.31,0.75-3.22,2.25
			c-0.39,0.91-0.88,1.37-1.46,1.37c-1.24,0-1.79-0.59-1.66-1.76c0.33-2.8,0.49-4.72,0.49-5.76v-63.97c0-1.24-0.28-2.12-0.83-2.64
			c-0.55-0.52-1.42-0.78-2.59-0.78h-3.42c-0.85,0-1.27-0.42-1.27-1.27c0-0.84,0.42-1.33,1.27-1.46l12.6-1.56c0.13,0,0.29,0,0.49,0
			c1.17,0,1.76,0.75,1.76,2.25l-0.59,22.27v6.84c0,0.59,0.13,0.96,0.39,1.12c0.26,0.16,0.49,0.15,0.68-0.05
			C486.42,324.42,491.57,323.02,497.62,323.02z M511.59,351.44c0-7.68-1.51-13.61-4.54-17.78c-3.03-4.16-7.2-6.25-12.5-6.25
			c-5.31,0-9.39,1.5-12.26,4.49c-0.65,0.65-0.98,1.3-0.98,1.95v25.2c0,3.13,1.3,5.76,3.91,7.91c2.6,2.15,5.6,3.22,8.99,3.22
			c5.34,0,9.57-1.72,12.7-5.18C510.03,361.56,511.59,357.04,511.59,351.44z"/>
		<path class="st0" d="M574,372.44c0,1.04-1.17,1.56-3.52,1.56c-4.04,0-7.46-1.6-10.26-4.79c-0.46-0.45-0.8-0.68-1.03-0.68
			c-0.23,0-0.57,0.2-1.03,0.59c-4.23,3.26-8.99,4.88-14.26,4.88c-3.71,0-6.97-1.15-9.77-3.47c-2.8-2.31-4.2-5.29-4.2-8.94
			c0-4.62,2.02-8.14,6.05-10.55c3.58-2.08,9.18-3.71,16.8-4.88c1.82-0.33,3.06-0.55,3.71-0.68c0.84-0.07,1.27-0.52,1.27-1.37v-8.99
			c0-2.67-0.9-4.78-2.69-6.35c-1.79-1.56-4.17-2.34-7.13-2.34c-2.96,0-5.63,0.91-8.01,2.73c-2.38,1.82-3.89,4.36-4.54,7.62
			c-0.19,0.98-0.73,1.46-1.61,1.46s-1.32-0.49-1.32-1.46v-7.32c0-1.11,0.36-1.92,1.07-2.44c3.45-2.67,8.4-4,14.85-4
			c6.45,0,10.97,1.4,13.58,4.2c2.61,2.8,3.91,6.41,3.91,10.84v26.08c0,2.08,0.67,3.78,2,5.08c1.33,1.3,2.91,1.96,4.74,1.96
			C573.54,371.17,574,371.59,574,372.44z M557.59,363.35v-12.21c0-0.98-0.43-1.46-1.27-1.46c-0.07,0-0.16,0-0.29,0
			c-11.66,1.43-17.48,5.02-17.48,10.74c0,2.67,0.88,4.77,2.64,6.3c1.76,1.53,3.73,2.3,5.91,2.3c2.18,0,4.1-0.42,5.76-1.27
			c1.66-0.84,2.86-1.69,3.61-2.54C557.22,364.36,557.59,363.74,557.59,363.35z"/>
	</g>
	<g>
		<g>
			<rect x="0.5" y="96.14" class="st0" width="88" height="3"/>
		</g>
		<g>
			<rect x="486.5" y="95.64" class="st0" width="88" height="3"/>
		</g>
	</g>
</g>
</svg>
